P3
# CREATOR me
4 2
255
1 1 1 1 1 1 100 100 100 
1 1 1 1 1 1 
100 100 100 
1 1 1 1 1 1 
